<?xml version="1.0" encoding="UTF-8"?>
<svg id="Layer_1" xmlns="http://www.w3.org/2000/svg" viewBox="0 0 16 16">
  <defs>
    <style>
      .cls-1 {
        fill: #74e7f0;
      }

      .cls-2 {
        fill: #31acf3;
      }

      .cls-3 {
        fill: #dcb6ff;
      }

      .cls-4 {
        fill: #b07ff5;
      }
    </style>
  </defs>
  <path class="cls-3" d="M10.59,12.16l-1.93-.92c.39-.82.91-1.55,1.54-2.16,2.06-1.99,4.72-2.17,5.77-2.15l-.03,2.14c-.78-.01-2.76.11-4.25,1.55-.45.43-.82.95-1.1,1.54Z"/>
  <path class="cls-4" d="M16,9.07C11,9.07,6.93,5,6.93,0h2.14c0,3.82,3.11,6.93,6.93,6.93v2.14Z"/>
  <path class="cls-1" d="M.19,9.07s-.08,0-.12,0l.03-2.14c.78.01,2.76-.11,4.25-1.55.45-.43.82-.95,1.1-1.54l1.93.91c-.39.82-.91,1.55-1.54,2.16-1.98,1.92-4.52,2.15-5.64,2.15Z"/>
  <path class="cls-2" d="M9.07,16h-2.14c0-3.82-3.11-6.93-6.93-6.93v-2.14c5,0,9.07,4.07,9.07,9.07Z"/>
</svg>